<?xml version="1.0" encoding="UTF-8"?>
<svg id="Layer_1" data-name="Layer 1" xmlns="http://www.w3.org/2000/svg" viewBox="0 0 144.19 113.93">
  <defs>
    <style>
      .cls-1, .cls-2 {
        fill: #282225;
      }

      .cls-2 {
        opacity: 0;
      }

      .cls-3 {
        fill: #00a1f8;
      }
    </style>
  </defs>
  <path class="cls-1" d="M36.87,38.58v-7.66h25.58v7.66h-25.58ZM45.22,71.13V20.66h7.89v50.47h-7.89Z"/>
  <path class="cls-1" d="M79.15,92.96c-2.83-.4-5.59-1.24-8.27-2.52-2.68-1.28-4.78-2.75-6.3-4.41l3.74-5.66c.9.9,2,1.74,3.28,2.51s2.66,1.43,4.13,1.98c1.47.54,2.94.92,4.4,1.13,2.78.39,5.17.27,7.17-.38,2-.65,3.6-1.79,4.81-3.42,1.21-1.63,2-3.77,2.37-6.39l1.08-7.66.76.65c-.47,1.53-1.51,2.92-3.1,4.16-1.59,1.24-3.49,2.17-5.69,2.79-2.2.62-4.39.77-6.56.47-3.79-.54-7.04-1.91-9.74-4.12-2.7-2.21-4.7-4.99-5.98-8.35-1.28-3.35-1.64-7.03-1.07-11.02s1.91-7.43,4.04-10.3c2.13-2.87,4.8-4.99,8.02-6.37,3.21-1.38,6.66-1.81,10.35-1.29,1.52.21,2.96.61,4.32,1.19,1.36.58,2.6,1.3,3.72,2.15s2.1,1.75,2.95,2.7c.84.95,1.51,1.92,1.99,2.91.48,1,.74,1.91.77,2.74l-1.75.37,1.32-9.33,7.81,1.1-5.28,37.39c-.45,3.18-1.32,5.94-2.6,8.26s-2.93,4.2-4.94,5.65c-2.01,1.44-4.34,2.43-6.99,2.96-2.65.53-5.57.57-8.76.12ZM82.83,69.11c2.48.35,4.76.08,6.84-.81,2.08-.89,3.8-2.27,5.15-4.15s2.21-4.12,2.58-6.75.16-5.04-.64-7.24-2.06-4.02-3.79-5.45c-1.73-1.43-3.84-2.32-6.31-2.67s-4.67-.05-6.74.87c-2.06.92-3.78,2.33-5.16,4.22-1.38,1.89-2.25,4.13-2.61,6.71s-.15,4.97.65,7.17c.8,2.2,2.06,4.02,3.79,5.45,1.73,1.43,3.81,2.32,6.24,2.66Z"/>
  <ellipse class="cls-3" cx="84.77" cy="55.58" rx="5.17" ry="4.4" transform="translate(17.89 131.75) rotate(-81.96)"/>
  <ellipse class="cls-3" cx="118.67" cy="60.37" rx="5.17" ry="4.4" transform="translate(42.31 169.44) rotate(-81.96)"/>
  <rect class="cls-2" width="144.19" height="113.93"/>
</svg>